<?xml version="1.0" encoding="UTF-8"?>
<svg id="Layer_1" xmlns="http://www.w3.org/2000/svg" version="1.1" viewBox="0 0 511.04 511.25">
  <!-- Generator: Adobe Illustrator 30.5.1, SVG Export Plug-In . SVG Version: 2.1.4 Build 3)  -->
  <defs>
    <style>
      .st0 {
        fill: #020202;
      }

      .st1 {
        fill: #010202;
      }

      .st2 {
        fill: #202020;
      }

      .st3 {
        fill: #fffefe;
      }

      .st4 {
        fill: #fefefe;
      }
    </style>
  </defs>
  <g id="Generative_Object">
    <g>
      <path d="M510.76,434.66c-.03,41.84-36.02,75.84-76.91,75.92l-349.56.67C36.59,511.34-.06,476.83,0,428.67L.41,77.22C1.51,37.11,31.94,4.13,71.8.05l368.11-.05c39.4,4.1,68.39,35.85,71.13,75.23l-.28,359.43Z"/>
      <path class="st2" d="M464.64,489.56c-11.02,6.28-20.81,8.45-33.02,8.43l-357.76-.59c-35.06-.06-60.99-32.78-60.98-66.34l.14-352.84c.71-34.3,26.71-62.65,60.85-65.6l364.94.03c33.48,3.51,58.08,30.9,59.6,64.57l-.19,357.87c-.01,22.83-14.47,43.58-33.56,54.47Z"/>
      <g>
        <path class="st0" d="M397.05,192.11c-26.46-2.45-49.42,14.31-56.43,39.31l-6,30.33-30.5-67.77c8.89-17.04,28.63-34.13,45.28-40.85,42.07-16.99,94.14-9.63,123.04,28.69l-29.94,31.7c-1.33,1.41-3.48,1.24-4.83.02l-14.52-13.14c-7.58-5.19-16.38-7.39-26.09-8.29Z"/>
        <path class="st3" d="M391.46,185.54c-14.42,0-26.5,5.19-37.59,13.15-11.9,10.54-19.31,24.64-22.01,40.57l-20.57-45.12c12.36-19.06,29.98-32.23,51.44-38.87,18.91-5.74,38.2-5.55,57.51-1.04,16.98,4.8,31.75,13.91,43.78,27.18l-24.07,25.1c-12.45-14-29.24-21.77-48.49-20.98Z"/>
      </g>
      <g>
        <path class="st0" d="M298.83,310.89l-24.22-55.09-18.92-46.21-26.84,64.07,48.2.54,17.87,40.29c.33,1.56.29,3.13-.55,4.07-.6.67-2.18.84-3.75.84l-81.35.16-18.72,43.5-46.23.15c-1.22.23-2.41,0-3.04-.24-.81-.31-2.37-2.04-1.6-3.78l90.35-204.48c.57-2.56,1.48-5.79,3.6-6.67h45.36s49.73,111.8,49.73,111.8l15.92,32.42c9.35,14.49,24.79,24.88,42,26.16,14.18,1.05,28.7-.97,39.17-9.88l15.23-12.96,30.38,30.51c3.58,3.59-15.79,21.21-25.7,26.84-27.06,15.36-58.4,17.79-88.24,7.99-25.16-8.25-45.49-26.21-58.66-50.02Z"/>
        <path class="st3" d="M299.18,297.27l-41.77-100.8c-.38-.93-1.56-1.54-2.06-1.43s-1.08,1.14-1.47,2.04l-33.71,79.58c-.49,1.15-.12,2.44.35,3,.4.47,1.47.84,2.66.84l49.96-.07,13.67,32.39-81.83.1-18.81,43.8-38.14-.18,89.38-202.21,37.26-.04,55.67,125.34c14.42,32.93,40.3,50.87,76.44,44.37,13.24-2.63,23.97-10.07,33.5-20.03l24.02,24.06c-9.02,11.54-20.32,19.24-33.87,25.18-52.27,19.76-109.56-3.55-131.26-55.92Z"/>
      </g>
      <g>
        <path class="st1" d="M150.67,323.46l-17.81,39.37-26.26.51c-1.56.03-3.17-1.23-3.17-3.11v-166.32s-63.35-.3-63.35-.3l-.22-45.53,182.96-.12c2.4.04,3.45,1.55,3.28,3.69l-18.66,42.1h-53.8s.2,113.38.2,113.38c.01,6.31-.42,10.25-3.17,16.32Z"/>
        <polygon class="st4" points="147.12 314.87 128.45 356.86 109.91 356.74 109.91 187.48 46.21 187.42 46.31 154.28 217.7 154.32 203.46 187.15 147.19 187.6 147.12 314.87"/>
      </g>
    </g>
  </g>
</svg>